<?xml version="1.0" encoding="UTF-8" standalone="no"?><svg xmlns="http://www.w3.org/2000/svg" xmlns:xlink="http://www.w3.org/1999/xlink" fill="#af8a45" height="76.2" preserveAspectRatio="xMidYMid meet" version="1" viewBox="-0.1 -0.0 661.7 76.2" width="661.7" zoomAndPan="magnify"><g id="change1_1"><path d="M33.4,74.579c-1.981-.748-5.548-2.153-7.926-3.121s-4.9-1.957-5.6-2.2c-3.83-1.317-1.189-4.736,9.2-11.913,7.535-5.2,10.94-6.719,16.01-7.126,2.488-.2,4.523-.562,4.521-.8C49.6,48.79,38.3,43.18,34.85,42.092c-3.566-1.126-13.207-6.038-15.15-7.719-3.369-2.914-6.915-8.223-10.326-15.46A83.654,83.654,0,0,0,2.757,7.246C.818,4.678-.138,2.723.016,1.641.249-.007.344-.021,10.339.005c9.618.026,10.288.124,14.41,2.11,7.08,3.411,12.409,9.365,17.126,19.133,2.2,4.549,4.207,9.082,4.467,10.072C47.386,35.3,51.613,43.926,53.236,45.4S58.994,48.98,64.377,51.1a55.576,55.576,0,0,0,9.186,2.956c.892.22-.085-.619-2.167-1.865C62.927,47.129,58.845,41.1,56.483,30.177c-.679-3.136-1.516-7-1.862-8.583-1-4.574-.85-7.566.374-7.566,1.028,0,9.31,2.432,12.264,3.6,12.511,4.953,18.026,11.316,23.11,26.66C94.488,56.722,98.2,59.568,110.9,60.02c21.464.764,48.1-5.261,57.892-13.1l2.1-1.682-3.217-.81c-6.473-1.63-10.574-5.946-9.65-10.154,1.275-5.8,9.886-8.565,15.378-4.93a10.121,10.121,0,0,1,4.055,10.206L177,42.007l3.851.48c9.833,1.224,37.41-3.609,46-8.062a8.915,8.915,0,0,1,2.413-.939,13.167,13.167,0,0,0,2.882-1.03c2.942-1.329,11.744-5.008,14.519-6.069,12.677-4.843,31.088-5.652,45.517-2,12.684,3.211,26.034,13.338,34.052,25.832,1.712,2.667,3.4,4.672,3.752,4.454A11.991,11.991,0,0,0,332,51.626c2.069-4.008,9.626-12.619,14.664-16.71,5.422-4.4,14.338-9.039,20.28-10.545,17.173-4.354,36.465-2.509,53.369,5.1,7.526,3.39,8.976,4.008,9.4,4.008a14.391,14.391,0,0,1,2.741,1.043,77.121,77.121,0,0,0,15.6,4.721,58.567,58.567,0,0,1,6.484,1.486c2.755.98,20.113,2.26,23.788,1.755l3.256-.448V37.7c0-4.171.119-4.453,3.022-7.161,2.777-2.59,3.354-2.819,7.1-2.819,3.773,0,4.282.207,6.872,2.8,3.253,3.252,3.647,6.016,1.289,9.014-1.592,2.024-5.441,4.235-8.759,5.032-1.089.262-1.981.779-1.981,1.148,0,1,8.988,5.84,14.388,7.755,12.152,4.31,27.363,6.744,42.046,6.73,15.074-.016,19.709-3.47,23.709-17.668.91-3.231,5.632-12.517,7.559-14.865,4.7-5.723,9.705-8.551,21.633-12.21,4.345-1.333,5.412-1.444,6.355-.662a2.176,2.176,0,0,1,.665,2.431c-.257.82-1.064,4.41-1.793,7.976-3.4,16.642-6.071,21.024-16.573,27.246-3.756,2.226-3.717,2.258,1.081.892,9.276-2.64,16.273-6.111,18.659-9.256a59.9,59.9,0,0,0,4.727-9.875c7.489-19.054,13.837-28.012,22.771-32.135C638.33.229,639.307.09,648.625.036c12.394-.071,12.967.337,8.466,6.032a96.663,96.663,0,0,0-7.6,13.261c-3.69,7.593-5.366,10.2-8.456,13.155a45.867,45.867,0,0,1-17.9,9.988c-2.466.706-13.682,6.4-13.686,6.943,0,.243,2.03.605,4.514.8,5.082.408,9.867,2.54,16.827,7.5,5.131,3.654,10.358,8.427,10.358,9.458,0,1.074-1.475,2.041-4.683,3.069a24.691,24.691,0,0,0-4.323,1.821c-3.655,2.276-11.132,4.1-15.638,3.811-4.769-.3-8.231-1.95-22.354-10.627a59.945,59.945,0,0,0-9.458-4.744c-3.7-1.256-4.135-1.262-8.851-.116-17.314,4.209-43.712,4.07-61.5-.322-14.159-3.5-22.611-7.251-28.461-12.646-1.249-1.152-2.782-1.338-11.528-1.4-19.1-.124-33.583-3.442-53.317-12.214-11.893-5.286-20.7-7.521-31.764-8.058a60.649,60.649,0,0,0-38.921,11.174c-8.75,6.364-18.115,17.947-18.832,23.291-.325,2.423-.627,2.845-1.908,2.662-1.058-.151-1.631-.875-1.881-2.379-.988-5.928-12.236-19.4-20.957-25.093-9.425-6.158-22.206-9.852-34.084-9.852-9.13,0-22.5,2.853-30.34,6.475-5.017,2.318-18.532,7.605-22.7,8.88-11.748,3.6-28.487,5.911-38.144,5.273l-6.081-.4-3.048,2.5c-8.738,7.16-24.664,12.378-44.232,14.491-14.2,1.535-32.7.561-44.616-2.35a21.31,21.31,0,0,0-6.707-.714c-2.941.588-10.807,4.581-16.976,8.616C51.207,73.971,46.3,76,41.32,75.966a26.87,26.87,0,0,1-7.926-1.387ZM174.1,39.376c.861-2.473-.451-6.116-2.623-7.278-2.352-1.259-6.161-.925-7.9.692-2.98,2.776-1.808,5.053,3.751,7.282,4.508,1.808,5.946,1.66,6.767-.7Zm317.153.829c5.905-2.175,7.076-4.178,4.221-7.217a5.359,5.359,0,0,0-4.356-1.667,5.953,5.953,0,0,0-6.326,6.331C484.794,41.889,485.7,42.249,491.255,40.205Z"/></g></svg>